# xmcd
#
# Track frame offsets: 
#        183
#        12505
#        25715
#        38843
#        53968
#        67343
#        79790
#        94520
#        107538
#        121270
#        134535
#        148595
#        162053
#        174835
#        189883
#        204168
#        216493
#        229445
#        242848
#        254898
#
# Disc length: 3557 seconds
#
# Revision: 3
# Processed by: cddbd v1.5.2PL0 Copyright (c) Steve Scherf et al.
# Submitted via: ExactAudioCopy v1.3
#
DISCID=1b0de314
DTITLE=Don Barreto et son Orchestre Cubain - Don Barreto 1932 - 1935
DYEAR=1991
DGENRE=Latin
TTITLE0=La Belle Creole (Colson)
TTITLE1=El Beso (Castellanos)
TTITLE2=Negra Bachatera (Riestra)
TTITLE3=Chi Chi Biguine (Gottlieb)
TTITLE4=Ruindera (Rodriguez)
TTITLE5=Biguine d'Amour (Rico)
TTITLE6=Mi Amor Esta En El Valle (Don Barreto)
TTITLE7=Asi Pare (Stellio)
TTITLE8=Lacrimas Negras (Matamoros)
TTITLE9=Lamento Esclavo (Grenet)
TTITLE10=Marta (Simons)
TTITLE11=Negra Consentida (Pardave)
TTITLE12=Belle Melanie (Beauregard)
TTITLE13=Serenta Cubana (Simons)
TTITLE14=Nuestro Cantar (Frontela)
TTITLE15=La Biguine Qu'a Pas Fini (Emer)
TTITLE16=Mujer Sonadora (Marino Barreto)
TTITLE17=Amor Cubano (Stothart-McHugh-Fields)
TTITLE18=Se Acaba El Mundo (Frontella)
TTITLE19=Vengo Por La Conga (Barreto-Fuentes)
EXTD=
EXTT0=
EXTT1=
EXTT2=
EXTT3=
EXTT4=
EXTT5=
EXTT6=
EXTT7=
EXTT8=
EXTT9=
EXTT10=
EXTT11=
EXTT12=
EXTT13=
EXTT14=
EXTT15=
EXTT16=
EXTT17=
EXTT18=
EXTT19=
PLAYORDER=
